<?xml version="1.0" encoding="utf-8"?>
<!-- Generator: Adobe Illustrator 26.0.2, SVG Export Plug-In . SVG Version: 6.00 Build 0)  -->
<svg version="1.1" id="Livello_1" xmlns="http://www.w3.org/2000/svg" xmlns:xlink="http://www.w3.org/1999/xlink" x="0px" y="0px"
	 viewBox="0 0 520.6 612.63" style="enable-background:new 0 0 520.6 612.63;" xml:space="preserve">
<style type="text/css">
	.st0{fill:#FFFFFF;}
</style>
<path class="st0" d="M310.45,35.71l-0.89,3.65l-1.86,0.91l-3.25,2.13l-3.72,2.91l-3.47,3.27l-0.94,3.55l0.95,2.32l0.94,0.8l1.27-0.7
	l1.85,0.44l2.32,1.27l3.86,1.24l0.11,1.22l-0.81,1.56l-3,2.77l-2.71,3.13l-0.27,1.91l0.33,1.39l0.94,0.84l4-0.38l0.59,1.14
	l-1.96,8.03l0.61,1.36l3.52,1.28l2.57,1.92l4.8,5.07l1.91,4.1l-1.31,1.38l-3.02,0.67l-2.46-0.34l2.78-2.47l-6.8-9.01l-3.08,0.02
	l-4.08,3.82l-11.36-3.86l-2.17,1.56l-1.61,3.05l-3.94,3.79l-5.58,1.66l-6.23,4.16l-6.55,2.94l-5.01,2.22l-2.88-0.39l4.57-4.8
	l-1.94-0.09l-6.07,3.39l-3.49,2.86l-1.13,4.82l-1.02,7.92l2.66,2.1l4.66,10.42l5.74,4.44l-1.11,4.24l-1.52,3.35l-3.47,2.89
	l-2.88-2.14l-1.77,0.05l-1.33,6.77l2.49,18.01l4.01,12.58l3.97,5.48l8.96,8.49l9.48,4.47l17.05,14.25l9.36,4.51l2.46,2.44
	l5.66,10.93l4.9,12.59l5.27,19.68l3.75,9.65l7.57,10.89l15.71,15.52l14.28,11.31l13.3,6.98l10.37,1.22l24.54-1.53l4.27,0.66
	l4.54,1.88l1.08,4.83l-1.66,3.25l-5.16,3.38l-5.26,4.68l-0.58,6.37l4.91,4.47l23.68,11.84l24.22,9.87l7.54,5.02l8.75,7.81l21.1,10.7
	l3.57,5.19l12.83,11.15l5.8,8.59l1.11,6.65l-2.77,6.74l-1.28,4.74l-2.17,4.68l-5.46-1.77l-6.21-4.82l-9.36-19.62l-17.07-1.99
	l-3.54-1.45l-6.07-3.38l-0.36-2.24l-1.5-2.78l-1.55-0.94l-6.52-0.63l-4.52,3.19l-5.32,7.56l-6.04,10.84l-6.13,15.85l-0.34,6.38
	l3.33,6.18l9.95,3.44l7.68,5.49l5.07,5.73l0.36,13.78l2.27,7.81l-3.33,4.43l-6.46-1.14l-8.6,2.82l-6.1,5.04l-2.53,4.79l0.66,12.39
	l-1.25,4.71l-11.56,8.89l-6.07,9.07l-1.52,3.75l-2.32,4.26l-14.6,0.16l-3.46-5.27l-0.13-7.84l2.5-4.83l5.37-2.27l3.61-10.07
	l-1.14-7.29l2.11-3.24l1.99-2.28l4.08-1.35l5.77-1.28l0.58-10.22l-4.51-4.65l-1.58-6.52l-2.1-12.08l-7.43-15.47l-3.97-13.84
	l-3.11-6.85l-4.72-3.58l-8.53,0.05l-4.24-1.02l-15.08-9.67l-1.05-1.47l0.09-2.58l2.5-3.9l-1.69-5.27l-1.78-4.99l-2.96-4.26
	l-3.24-2.22l-6.79,1.36l-2.38,1.05l-4.29-0.36l-3.36,1.89l-1.88,0.06l5.29-7.49l-1.42-1.77l-5.22-3.08l-7.1-0.47l-1.97-0.38
	l-1.16,1.92l-1.38-1.05l0.14-3.35l-8.24-15.05l-5.54-6.15l-2.8-1.1l-5.05,1.3l-8.46-2.69l-5.05-0.59l-2.78,0.66l-4.16,1.96l-2.1-1.3
	l-0.74-2.02l-7.68-6.27l-9.59-3.55l-18.66-20.07l-5.73-7.52l-11.78-8.31l-7.45-12.14l-6.1-4.46l-8.87-3.58l-2.05,0.45l-2.66,1.35
	l-2.1,0.19l-1.66-1.58l1.69-1.63l1.89-0.74l-0.74-4.66l-10.11-12.11l-5.91-3.91l-1.67-2.41l-1.24-3.3l-1.27-2.17l-2.8-1.25
	l-2.39,0.22l-3.3-0.83l0.11-5.85l0.66-4.49l-0.5-3.82l-3.22-10.06l-5.57-8.54l-3.29-20.51l-2.53-5.8l-6.16-4.4l-13.91-4.94
	l-19.38-13.31l-4.1-0.23l-11.65-5.19l-7.23-0.89l-9.39,4.66l-11.4,12.8l-9.25,13.25l-3.36,2.57l-11.94,4.51L38,206.67l-0.11-3.38
	l-0.38-2.55l1.78-2.8l2.94-3.3l2.71-4.16l1.13-3l-0.53-2l-1.22-2.97l-1.66-0.22l-10.04,2.5l-2.3-0.64l-7.43-3.9l-7.99-4.79
	l-2.94-3.41l-1.11-3.44l0.83-2.22l-0.66-2.16l-1.56-2.91l1.41-3.3l2.49-4.11l1.25-2.8l2.1-0.72l1-1.71l-1.67-6.82l-0.88-1.1
	l-1.44-0.84l-2.22-0.09l-3.88-1.41l-2.75-2.36l-0.59-3.19L2.8,129.8l-2.49-2.82L0,123.9l2.83-1.63l3.86-0.06l2.72,0.61l6.1-4.96
	l2.25-0.44l2.02-1.06l1.69-6.79l1.3-2.03l0.31-1.19l-1.2-1.42l-4.93-4.79l-2.25-5.01l-3.55-5.62l-3.3-2.49l-0.67-1.94L7.1,82.63
	l0.67-2.17l5.98-3.38l3.54-3.6l1.52,1.38l3.22,1.47l8.74-2l5.43-2.02l3.82-2.13l2.36,0.38l8.57,3.18l2.83-1.61l6.18-4.3l0.92-2.27
	l4.88-6.88l0.09-1.67l-2-4.33l0.63-0.95l5.98-4.44l2.93-3.94l3.18-2.64l2.28-0.06l0.63,0.91l0.27,1.85l-0.2,7.6l0.88,2.33l4.69,5.44
	l3.35,3.1l7.78,2.13l0.36,1.02l-2.14,4.08l4.71,4.88l0.84,3.57l2.17,2l3.07-0.99l1-1.89l-1.2-3.3l-0.89-3.46l0.17-2l0.84-2.3
	l2.14-3.22l5.82-7.38l2.1-4.27l0.38-6.62l0.02-5.32l1.94-1.3l4.18,0.95l1.25-0.11l0.56,3.27l1.78,5.21l2.1,2.69l2.24,0.64l2.63,0.02
	l6.51-3.18l4.24-1.38l2.41,0.38l1.42,2.16l3.03,5.68l1.74,0.64l2.1-0.66l0.74-0.97l-0.67-2.19l-0.89-4.74l-1.22-3.68l-1.6-1.72
	l-0.33-2.24l1-4.04l1.14-3.38l2.22-0.92l2.55-0.42l3.36,3.58l3.99,1.13l2.97-0.19l0.52-2.08l-0.19-2.28l-1.77-2.94l0.34-4.46
	l2.05-8.32l1.17,0.64l4.41,0.08l4.8,0.47l3.1,3.39l3.03,1.16l4.32,0.36l2.89-0.47l1.41-1.28l1.67-3.97l3.1-4.93l4.85-2.53L211,6.37
	l4.15-0.92l4.3,0.05l3.24,0.77l3.35-0.09l8.51-3.44L243.32,0l1.22,0.45l0.19,0.91l-1.58,2.1l-1.53,2.78l1.03,3.18l4.99,6.37
	l2.72,4.87l2.57,3.65l3.99,1.92l5.24,1.17l4.44,0.42l4.65,1.38l15.94,3.39l8.03,0.94l6.09,0.14L310.45,35.71L310.45,35.71z
	 M165.37,261.22l1.45,2.32l0.17,1.35l-0.99,1.53l0.41,3.44l-3.68-2.86l-5.55,1.44l-3.41-0.31l-0.94-2.57l0.78-1.5l5.29-0.33
	l1.64-0.74l3.22,0.34L165.37,261.22z M131.84,377.31l2.21,3.69l4.93,15.11l0.47,3.25l-0.99,3.33l-1.25,2.36l-4.9,7.57l0.72,6.24
	l1.81,3.86l0.27,4.27l-0.91,5.29l-3.03,32.37l-1.47,5.71l-0.92,4.93l-3.35,1.5l-4.32-1.58l-5.44-2.78l-2.52,0.17l-2.53,0.95
	l-2.08-0.81l-1.99-1.58l-1.49,11.04l-2.46,4.47l-3.74,2.86l-3.52,0.17l-3.63-0.95h-3.07l-2.33-2.11l-1.85-3.72l-2.94-4.52
	l-2.99-5.37l-0.33-4.87l-0.52-10.75l0.86-2.35l1.25-2.25l0.61-4.82L80,443.81l0.88-1.5l1.74,1.5l1.3-0.56l-0.08-2.17l0.39-3.96
	l-2.28-3.32l-3.86-1.13l-0.38-3.47l0.41-3.39l2.03-2.28l0.69-3.03l0.02-9.28l-2.72-3.43l-1.05-5.19l-1.41-3.32l-2.53-3.35
	l-2.88-2.72l-1.77-2.63l-0.39-6.88l1-5.76l0.91-2.47l0.92,0.36l2.85,2.86l2.33,0.64l4.62,0.69l4.54-0.92l5.57-2.61l5.37-3.16
	l7.78-9.31l4.79-1.89l2.46-2.46l0.84-3.32l2.03-0.86l2.39,3.22l2.97,0.34l4.58,2.66l1.97,2.53l1.69,3.05l1.63,1.35l1.74,0.77
	l0.25,0.72l-1.38,0.72l-1.58,3.49l0.89,1L131.84,377.31L131.84,377.31z M72.76,368.17l-1.45,2.64l-2.06-0.19l0.81-1.96l1.91-3.93
	l2.32-1.31l1.03,1.17l-1.1,2.25L72.76,368.17L72.76,368.17z M320.91,387.51l-1.96,0.5l-1.14-0.69l-0.63-0.88l0.77-2.17l3.99,1.3
	l-0.05,1.22L320.91,387.51L320.91,387.51z M81.24,480.87l-2.53,5.57l-2.64-3.94l-0.11-3.38l0.36-0.97l3.25,1.42L81.24,480.87
	L81.24,480.87z M392.84,528.3l-2.97,6.32l-1.46,2.42l-10.59,15.41l-1.22,3.55l-0.75,3.86l-1.1,3.38l-1.47,3.18l-1.39,4.04l0.27,4.57
	l0.5,2.24l1.28,1.47l2.1,1.38l1.61,2.13l-2.47,1.92l2.71,3.86l2.32,2.28l0.31,2.28l-0.05,2.28l-4.8,4.29l-1.88,2.36l-1.16,2.86
	l-0.5,2.94l0.52,2.66l-0.16,2.64l-4.83-0.33l-4.94-1.63l-4.99,0.7l-7.1-3.07l-2.58-0.55l-2.35-1.2l-5.9-9.51l-4.76-4.02l-5.1-3.14
	l-5.21-0.19l-5.21,0.36l-4.6-1.94l-9.37-6.49l-9.93-5.21l-4.21-3.38l-1.92-2.28l-2.25-1.52l-5.68-1.5l-5.12-3.54l-2.32-0.25
	l-4.99,0.42l-2.57-0.25l-2.58-1.25l-4.97-4.15l-3.19-5.76l-0.83-2.55l2.25-6.59l2.67-6.34l2.36-1.77l2.75-1.28l1.66-1.88l1.41-2.3
	l5.12,6.63l2.28,1.61l2.32-0.36l4.1-2.38l0.34-2.61l4.54-3.3l5.76-0.06l2.66,0.61l1.39,2.99l2.19,0.92l2.53,0.39l8.35,5.68
	l2.35,0.92l2.36,0.16l6.49-2.38l4.97-0.91l10.43,1.31l5.63-1.42l3.94-0.17l5.74-2.19l4.41-3.65l2.3-0.91l2.47-0.27l5.98,0.23
	l6.01,0.83l2.52-0.86l2.11-2.39l2.44-1.08l2.68,0.72l6.93-4.1l3.07-0.28l2.91,1.58L392.84,528.3L392.84,528.3z M238.06,608.93
	l-2.11,0.61l-2.75-1.88l-0.19-2.63l0.5-0.78l3.35,1.2l1.05,2.44L238.06,608.93L238.06,608.93z"/>
</svg>
